<?xml version="1.0" encoding="UTF-8"?><svg data-name="Ebene 1" xmlns="http://www.w3.org/2000/svg" viewBox="0 0 145.026 70"><path d="M55.755 10.511c.857-6.031-.831-9.849-5.294-10.06C41.26.014 23.659 15.066 11.28 33.959-1.099 52.851-3.692 68.616 5.509 69.053c6.296.299 16.526-6.657 26.324-17.132h-1.149C22.43 59.908 14.173 65.027 8.892 64.782c-8.559-.397-6.148-14.724 5.368-31.893 11.517-17.17 27.89-30.85 36.449-30.453 3.873.18 5.492 3.218 5.046 8.075Z" style="fill:#f2e500"/><path d="M56.329 18.275C60.165 7.671 59.407.305 53.452.009c-3.898-.194-9.382 2.675-15.305 7.576 4.859-3.383 9.284-5.301 12.562-5.149 5.656.262 6.518 6.61 3.131 15.839h2.488ZM30.685 51.921c-8.254 7.987-16.511 13.106-21.792 12.861-1.319-.061-2.375-.455-3.18-1.138.579 2.82 2.224 4.494 4.999 4.632 5.853.291 15.28-6.319 24.404-16.355h-4.431Z" style="fill:#046734"/><path d="M34.265 10.526c-7.47 5.94-15.683 15.088-22.318 25.42C.177 54.274-2.288 69.567 6.46 69.991c6.267.303 16.632-7.105 26.335-18.07h-2.11c-8.254 7.987-16.511 13.106-21.792 12.861-8.559-.397-6.148-14.724 5.368-31.893 5.954-8.877 13.205-16.814 20.004-22.362Z" style="fill:#e52421"/><path d="m127.208 41.441 7.586-9.484 3.531 9.484m-21.24 7.531h4.12l3.436-4.295h14.849l1.612 4.295h3.925l-7.514-20.685h-3.894l-16.533 20.685ZM94.611 24.73h16.22l.253.003.248.002.242.003.236.004.23.005.224.006.218.007.212.009.207.01.2.012.194.013.188.015.182.017.175.019.169.021.163.023.156.025.149.027.143.029.136.032.13.033.123.036.116.038.109.041.103.043.096.045.09.047.083.049.075.05.048.037.047.041.043.043.04.044.037.047.034.05.032.053.029.055.027.059.025.063.022.067.02.071.017.076.015.08.012.085.009.089.006.094.004.099v.104l-.001.109-.005.114-.008.119-.011.124-.014.128-.017.134-.02.139-.022.144-.025.148-.028.153-.031.158-.033.163-.035.165-.083.356-.087.328-.092.302-.096.277-.101.252-.106.228-.11.205-.114.183-.118.163-.123.146-.129.13-.136.118-.147.108-.16.1-.176.092-.194.085-.213.078-.233.071-.254.064-.275.056-.297.049-.318.042-.34.035-.361.029-.384.023-.406.018-.429.013-.452.009-.475.006-.499.003h-.523l-.548.002H93.017l1.593-7.286Zm25.986 2.565.045-.249.04-.244.035-.239.03-.234.025-.229.02-.224.014-.22.008-.215.002-.211-.005-.207-.011-.203-.018-.199-.026-.195-.033-.191-.041-.187-.049-.183-.057-.179-.066-.174-.075-.17-.084-.165-.092-.161-.101-.156-.11-.151-.119-.147-.128-.142-.137-.137-.146-.133-.155-.129-.166-.126-.158-.108-.164-.101-.171-.095-.178-.089-.184-.083-.19-.078-.197-.072-.203-.067-.21-.062-.216-.058-.222-.053-.228-.049-.235-.045-.241-.041-.247-.038-.253-.034-.26-.031-.266-.028-.273-.025-.279-.022-.285-.02-.291-.017-.298-.015-.304-.013-.311-.011-.317-.009-.323-.007-.33-.006-.337-.004-.343-.003h-.349l-.356-.002H90.98l-6.199 28.362h19.363l.789-.003.762-.008.736-.014.71-.021.684-.029.66-.038.636-.047.612-.057.589-.068.567-.08.545-.093.524-.107.504-.122.485-.137.466-.155.447-.173.429-.193.41-.214.392-.236.372-.258.352-.282.331-.305.31-.328.287-.351.265-.373.242-.394.221-.415.2-.436.18-.458.161-.48.143-.503.125-.521.632-2.891.069-.337.058-.33.046-.321.033-.311.02-.302.008-.292-.006-.283-.02-.274-.034-.264-.048-.255-.063-.246-.078-.236-.094-.226-.109-.215-.125-.204-.14-.193-.156-.181-.17-.169-.185-.158-.199-.146-.213-.135-.227-.123-.24-.112-.254-.102-.221-.076.109-.048.269-.132.259-.141.248-.15.238-.16.228-.169.217-.178.206-.188.196-.197.184-.206.174-.214.163-.222.153-.23.142-.238.133-.245.125-.253.117-.26.109-.268.102-.276.096-.284.091-.293.086-.301.082-.311.078-.32.075-.329.057-.266.053-.26.049-.254Zm-11.308 9.069.487.003.458.008.431.013.404.019.378.026.352.032.326.039.3.046.275.054.25.061.225.068.202.075.179.082.157.089.137.096.119.102.102.11.088.119.075.129.063.142.052.157.04.173.029.191.017.21.004.23-.008.25-.021.271-.033.292-.045.313-.057.334-.068.355-.079.376-.075.326-.078.306-.081.287-.085.268-.089.249-.093.231-.097.212-.1.195-.104.177-.108.162-.113.147-.118.134-.124.122-.132.113-.142.105-.154.098-.168.092-.184.087-.201.08-.219.075-.238.068-.257.062-.277.055-.296.049-.317.042-.337.035-.358.029-.379.023-.401.017-.422.012-.445.007-.468.002h-17.22l1.822-8.334h17.22ZM61.046 48.972h20.39l.73-3.342h-16.86l1.247-5.705h16.162l.731-3.342H67.284l1.083-4.953h16.86l.731-3.342h-20.39l-4.521 20.685Zm-13.497-3.975H34.42l-.257-.005-.249-.007-.242-.01-.234-.013-.227-.016-.22-.019-.212-.022-.205-.025-.198-.029-.19-.032-.183-.035-.176-.039-.169-.042-.162-.046-.155-.049-.147-.053-.141-.057-.134-.061-.128-.064-.121-.068-.115-.072-.109-.076-.103-.08-.097-.085-.092-.089-.087-.094-.082-.098-.077-.104-.072-.109-.068-.115-.064-.122-.05-.107-.045-.108-.04-.11-.036-.113-.031-.115-.028-.118-.023-.12-.019-.123-.015-.126-.012-.129-.008-.133-.004-.136v-.139l.002-.143.006-.147.009-.15.013-.154.016-.158.019-.161.022-.165.025-.169.027-.173.03-.177.032-.18.034-.184.036-.188.038-.192.04-.196.042-.2.043-.203.045-.208.046-.211 1.578-7.219.046-.211.046-.207.045-.203.045-.2.045-.196.045-.192.046-.188.046-.184.047-.18.047-.177.049-.173.049-.169.05-.165.052-.162.053-.158.054-.154.056-.15.058-.147.06-.143.061-.139.064-.136.066-.133.068-.129.07-.126.073-.123.076-.121.079-.118.082-.115.085-.112.089-.11.092-.108.096-.106.121-.125.122-.119.124-.112.125-.106.127-.101.13-.095.133-.09.135-.085.139-.081.142-.076.146-.072.15-.068.155-.064.16-.06.165-.056.169-.052.175-.049.18-.045.186-.041.192-.038.197-.034.203-.031.209-.027.215-.024.221-.021.227-.018.233-.015.239-.012.246-.009.252-.006.258-.004h.266l12.976-.001.417.004.394.012.374.02.354.029.334.038.314.046.295.055.275.064.256.072.237.081.218.09.2.098.182.107.165.115.149.124.134.133.12.144.106.154.094.166.081.178.069.192.056.207.044.222.031.239.017.256.004.273-.009.291-.023.309-.037.327-.051.346-.065.364-.08.386-.217.992h4.234l.184-.645.028-.101.027-.101.026-.099.025-.098.024-.097.024-.096.023-.094.022-.093.021-.092.021-.091.02-.09.02-.088.019-.088.019-.086.02-.09.119-.586.095-.566.069-.541.043-.517.016-.494-.011-.472-.039-.45-.069-.428-.098-.406-.129-.384-.159-.361-.19-.339-.221-.315-.251-.292-.281-.269-.31-.246-.338-.224-.365-.203-.393-.182-.42-.163-.447-.145-.474-.128-.501-.112-.529-.097-.557-.083-.585-.069-.614-.056-.643-.045-.672-.033-.702-.023-.732-.013-.761-.004H41.03l-.398.003-.39.005-.383.007-.376.009-.369.012-.363.014-.356.018-.35.021-.344.024-.338.028-.332.032-.326.036-.321.041-.315.045-.31.05-.305.056-.3.061-.295.067-.291.073-.286.079-.282.086-.278.093-.274.1-.269.107-.265.115-.261.123-.257.131-.253.139-.249.148-.244.157-.24.165-.235.174-.228.181-.221.188-.215.195-.208.202-.202.209-.195.216-.189.223-.183.23-.177.237-.171.244-.165.25-.159.257-.154.263-.148.27-.144.277-.139.284-.134.29-.129.297-.125.304-.121.311-.117.318-.114.325-.11.333-.106.34-.103.347-.101.355-.098.363-.095.37-.093.378-.09.386-.088.393-1.62 7.41-.077.362-.072.357-.066.349-.061.343-.055.336-.049.329-.043.322-.037.316-.03.31-.024.303-.017.297-.01.291-.003.285.004.279.011.273.019.267.026.261.034.255.042.249.05.244.059.238.067.232.076.226.084.22.094.214.102.208.112.202.121.196.13.19.139.184.148.178.157.171.172.171.181.163.189.154.197.145.205.136.212.127.219.119.227.111.234.103.241.095.248.088.255.081.262.074.269.068.276.062.283.056.29.05.297.045.304.04.311.036.318.031.325.027.332.024.339.02.346.017.353.014.361.011.368.008.376.006.383.004.391.002H45.28l.42-.003.412-.004.404-.005.396-.007.388-.009.381-.012.373-.014.366-.017.359-.02.352-.024.345-.027.338-.031.331-.035.324-.04.318-.044.312-.049.306-.054.3-.06.294-.065.288-.071.283-.078.277-.084.272-.091.267-.099.262-.106.256-.115.251-.123.245-.132.24-.14.234-.149.226-.156.257-.19.246-.196.235-.202.224-.207.213-.212.203-.218.192-.223.182-.227.172-.232.163-.236.154-.241.145-.244.137-.249.129-.253.122-.256.115-.26.109-.264.103-.268.098-.272.093-.276.089-.28.085-.284.081-.288.078-.292.076-.297.074-.301.073-.306.072-.311.071-.315.071-.32.072-.325.072-.33 1.092-4.998H41.874l-.917 4.197H54.91l-.175.798-.104.463-.105.439-.107.416-.109.393-.112.371-.115.348-.119.326-.123.305-.127.283-.132.261-.137.241-.142.221-.147.202-.153.184-.16.169-.168.155-.178.142-.19.132-.204.122-.221.113-.239.104-.259.095-.279.086-.301.077-.323.067-.346.058-.37.048-.394.039-.418.03-.443.021-.468.012-.496.004Z" style="fill:#1d1d1b"/></svg>